<!-- Created with Linearity Curve (http://linearity.io/curve) -->
<svg class="gpf-svg" preserveAspectRatio="xMidYMid meet" height="100%" stroke-miterlimit="10" style="fill-rule:nonzero;clip-rule:evenodd;stroke-linecap:round;stroke-linejoin:round;" version="1.1" viewBox="0 0 1024 1024" width="100%" xml:space="preserve" xmlns="http://www.w3.org/2000/svg" xmlns:vectornator="http://vectornator.io" xmlns:xlink="http://www.w3.org/1999/xlink">
<defs/>
<g id="Layer-1" vectornator:layerName="Layer 1">
<path class="gpf-ring" d="M45.3883 507.219C45.3883 249.631 254.695 40.8151 512.888 40.8151C771.081 40.8151 980.388 249.631 980.388 507.219C980.388 764.807 771.081 973.624 512.888 973.624C254.695 973.624 45.3883 764.807 45.3883 507.219Z" fill="#ffffff" fill-rule="nonzero" opacity="1" stroke="#0f2e1e" stroke-linecap="butt" stroke-linejoin="round" stroke-width="38" vectornator:layerName="Oval 1"/><g class="gpf-inner">
<path d="M553 170C554.108 170.151 555.215 170.301 556.356 170.457C575.372 173.126 593.638 177.425 612 183C612.946 183.281 613.893 183.561 614.868 183.851C638.049 190.784 659.766 201.226 680.538 213.544C682.747 214.85 684.968 216.13 687.199 217.398C695.991 222.451 704.059 228.277 712.061 234.495C713.933 235.948 715.815 237.387 717.699 238.824C724.553 244.088 731.039 249.618 737.344 255.527C739.481 257.517 741.646 259.428 743.875 261.312C753.855 270.001 762.839 279.6 771 290C771.893 291.083 772.789 292.164 773.688 293.242C803.77 329.612 825.991 373.37 838 419C838.247 419.931 838.494 420.862 838.749 421.821C842.308 435.505 844.817 449.265 846.812 463.25C846.918 463.983 847.023 464.716 847.131 465.471C856.045 528.302 846.381 594.688 819 652C818.84 652.335 818.84 652.335 818.032 654.032C815.775 658.734 813.416 663.377 811 668C810.642 668.69 810.285 669.38 809.917 670.091C797.74 693.4 782.129 715.503 764.145 734.707C762.282 736.698 760.509 738.731 758.75 740.812C750.894 749.844 742.168 758.314 733 766C732.108 766.781 731.216 767.562 730.297 768.367C702.123 792.915 669.638 812.113 635 826C634.106 826.359 633.213 826.719 632.292 827.089C603.029 838.681 572.213 844.816 541 848C539.701 848.134 538.401 848.268 537.062 848.406C533.375 848.714 529.698 848.897 526 849C525.065 849.027 524.13 849.054 523.167 849.083C435.037 851.238 348.941 819.905 284.551 759.34C282 757 282 757 279.367 754.918C277.225 753.182 275.563 751.491 273.812 749.375C271.059 746.143 268.165 743.152 265.125 740.188C260.926 736.026 257.135 731.696 253.457 727.07C251.692 724.864 249.907 722.702 248.074 720.555C234.745 704.797 223.598 687.253 214 669C213.759 668.55 213.759 668.55 212.541 666.275C195.361 634.012 183.597 599.024 178.406 562.79C178.138 560.951 177.854 559.114 177.551 557.28C171.907 522.976 173.142 486.202 179 452C179.099 451.401 179.099 451.401 179.601 448.37C184.655 418.757 193.971 390.045 207 363C207.362 362.238 207.724 361.475 208.097 360.689C210.297 356.071 212.604 351.52 215 347C215.369 346.299 215.738 345.598 216.119 344.875C229.575 319.491 246.658 294.546 267.445 274.555C269.135 272.865 270.651 271.081 272.188 269.25C277.003 263.685 282.504 258.871 288 254C288.265 253.763 288.265 253.763 289.605 252.562C299.557 243.673 310.131 235.729 321 228C321.315 227.775 321.315 227.775 322.908 226.634C347.628 209.065 375.792 195.018 404.648 185.756C407.012 184.996 409.365 184.211 411.719 183.422C431.418 176.904 451.453 172.791 472 170C472.876 169.88 473.752 169.76 474.655 169.636C500.157 166.322 527.538 166.453 553 170Z" fill="#0f2e1e" fill-rule="nonzero" opacity="1" stroke="none" vectornator:layerName="Curve 2"/>
<path d="M480 201C481.287 210.246 482.264 219.496 483.051 228.797C483.147 229.934 483.243 231.071 483.342 232.242C483.553 234.741 483.763 237.239 483.973 239.737C487.224 278.278 491.068 316.762 494.875 355.25C495.027 356.787 495.179 358.323 495.331 359.86C497.215 378.907 499.105 397.954 501 417C508.59 417.33 516.18 417.66 524 418C524.058 417.179 524.058 417.179 524.352 413.025C525.515 396.836 526.895 380.678 528.426 364.52C528.658 362.047 528.89 359.574 529.121 357.101C529.727 350.637 530.336 344.173 530.945 337.71C531.906 327.517 532.864 317.324 533.82 307.13C534.057 304.601 534.294 302.072 534.532 299.543C535.855 285.458 537.154 271.371 538.4 257.279C538.513 256.003 538.626 254.727 538.742 253.412C539.278 247.35 539.81 241.287 540.336 235.224C541.336 223.781 542.442 212.382 544 201C554.316 201.94 564.354 203.32 574.5 205.438C575.489 205.643 576.479 205.848 577.498 206.059C583.771 207.406 589.881 209.078 596 211C594.605 219.334 592.748 227.506 590.719 235.707C590.39 237.045 590.061 238.384 589.733 239.722C588.846 243.332 587.954 246.941 587.06 250.55C586.495 252.832 585.932 255.115 585.368 257.397C578.06 287.002 570.487 316.536 562.854 346.058C558.65 362.319 554.507 378.596 550.375 394.875C550.043 396.181 549.712 397.488 549.38 398.794C547.585 405.862 545.792 412.931 544 420C545.157 420.268 546.314 420.537 547.506 420.813C549.044 421.172 550.583 421.531 552.121 421.891C552.881 422.067 553.641 422.243 554.424 422.424C560.02 423.733 565.531 425.226 571 427C571.255 426.164 571.51 425.328 571.773 424.467C573.12 420.662 574.812 417.117 576.633 413.524C576.996 412.799 577.359 412.074 577.733 411.328C578.931 408.937 580.136 406.548 581.34 404.16C582.185 402.475 583.031 400.79 583.875 399.105C586.105 394.658 588.339 390.214 590.575 385.771C594.543 377.882 598.506 369.991 602.465 362.098C602.889 361.253 603.312 360.409 603.749 359.539C609.169 348.736 614.531 337.913 619.671 326.973C622.295 321.396 625.091 315.933 628 310.5C631.505 303.928 634.818 297.297 638 290.562C642.675 280.703 647.437 270.888 652.275 261.107C653.09 259.456 653.902 257.802 654.709 256.147C655.849 253.814 657.001 251.489 658.156 249.164C658.5 248.455 658.843 247.745 659.197 247.015C661.658 242.114 661.658 242.114 665 241C666.986 241.845 666.986 241.845 669.246 243.211C670.078 243.71 670.91 244.208 671.767 244.722C672.207 244.995 672.207 244.995 674.438 246.375C675.338 246.924 676.239 247.474 677.167 248.04C684.104 252.322 690.608 256.937 697 262C698.58 263.192 700.163 264.38 701.75 265.562C702.833 266.375 703.917 267.188 705 268C704.523 272.816 702.187 275.854 699.312 279.562C698.305 280.898 697.3 282.235 696.297 283.574C695.761 284.288 695.226 285.001 694.674 285.736C691.724 289.726 688.897 293.802 686.062 297.875C684.869 299.587 683.675 301.3 682.48 303.012C681.897 303.849 681.314 304.686 680.712 305.548C676.654 311.359 672.555 317.141 668.463 322.928C666.987 325.018 665.515 327.11 664.043 329.203C658.89 336.526 653.697 343.816 648.438 351.062C643.894 357.327 639.451 363.65 635.087 370.04C631.342 375.52 627.526 380.947 623.691 386.364C619.181 392.735 614.703 399.129 610.234 405.529C607.367 409.631 604.49 413.725 601.586 417.801C601.045 418.562 600.503 419.323 599.945 420.107C598.935 421.526 597.922 422.943 596.906 424.357C593.996 428.447 591.423 432.603 589 437C589.367 437.138 589.367 437.138 591.223 437.837C593.806 438.919 596.049 440.131 598.426 441.602C599.222 442.091 600.018 442.581 600.838 443.086C601.655 443.594 602.471 444.102 603.312 444.625C604.148 445.141 604.984 445.656 605.846 446.188C607.899 447.455 609.951 448.726 612 450C626.328 437.839 639.532 424.563 652.745 411.219C658.117 405.803 663.456 400.442 669.276 395.502C672.343 392.83 675.156 389.905 678 387C682.143 382.809 686.309 378.773 690.812 374.969C694.652 371.513 698.23 367.788 701.863 364.118C705.435 360.523 709.074 357.109 712.945 353.836C715.744 351.335 718.363 348.67 721 346C724.758 342.195 728.561 338.577 732.66 335.137C734.756 333.223 736.716 331.251 738.684 329.207C739.351 328.518 740.018 327.83 740.706 327.12C742.055 325.72 743.394 324.31 744.722 322.889C745.033 322.567 745.033 322.567 746.609 320.938C747.166 320.348 747.722 319.759 748.296 319.152C750 318 750 318 752.093 318.192C759.753 321.437 765.723 335.151 770 342C770.576 342.92 771.152 343.84 771.746 344.788C772.283 345.662 772.821 346.537 773.375 347.438C773.857 348.22 774.339 349.002 774.836 349.809C775.943 351.892 776.548 353.695 777 356C767.613 363.347 758.021 370.376 748.335 377.322C746.035 378.975 743.739 380.635 741.445 382.297C734.184 387.558 726.903 392.786 719.562 397.938C710.26 404.468 701.125 411.224 692 418C692.969 418.196 693.939 418.392 694.938 418.594C696.293 418.891 697.647 419.194 699 419.5C699.362 419.58 699.362 419.58 701.192 419.985C706.064 421.183 709.737 422.937 713.932 425.656C721.589 430.46 721.589 430.46 726.067 429.605C730.943 427.689 735.169 424.692 739.451 421.716C744.061 418.612 748.927 415.944 753.75 413.188C755.784 412 757.817 410.81 759.848 409.617C760.86 409.023 761.872 408.428 762.915 407.815C769.796 403.767 776.673 399.711 783.543 395.645C784.327 395.181 785.111 394.718 785.919 394.241C787.621 393.226 789.307 392.185 790.988 391.137C793 390 793 390 795 390C796.127 392.874 797.252 395.749 798.375 398.625C798.692 399.433 799.009 400.241 799.336 401.074C804 413.026 804 413.026 804 418C793.271 423.436 782.459 428.688 771.608 433.874C770.58 434.365 769.551 434.857 768.492 435.363C767.578 435.799 766.664 436.235 765.722 436.685C762.801 438.096 759.901 439.549 757 441C762.28 441.33 767.56 441.66 773 442C772.158 446.209 771.109 449.413 769.438 453.312C768.982 454.381 768.527 455.45 768.059 456.551C767.709 457.359 767.36 458.167 767 459C767.52 458.8 768.039 458.599 768.574 458.393C773.974 456.31 779.376 454.235 784.78 452.164C786.797 451.39 788.813 450.614 790.829 449.836C793.724 448.719 796.622 447.609 799.52 446.5C800.423 446.15 801.326 445.8 802.257 445.439C803.097 445.119 803.938 444.799 804.804 444.469C805.543 444.185 806.283 443.9 807.045 443.607C809 443 809 443 812 443C815.852 460.784 819.073 479.083 819.02 497.316C819.017 498.57 819.014 499.824 819.011 501.115C819.009 501.591 819.009 501.591 819 504C748.177 516.684 748.177 516.684 721.228 521.302C719.252 521.641 717.276 521.981 715.3 522.323C712.602 522.788 709.903 523.249 707.203 523.707C706.433 523.841 705.662 523.974 704.868 524.112C701.14 524.737 697.81 525 694 525C694 529.95 694 534.9 694 540C695.469 539.99 696.939 539.979 698.453 539.968C704.04 539.931 709.628 539.909 715.216 539.89C717.609 539.88 720.002 539.867 722.395 539.849C746.072 539.68 769.315 541.212 792.75 544.562C794.363 544.787 795.976 545.01 797.59 545.232C803.739 546.086 809.88 546.954 816 548C816.219 554.012 815.467 559.181 814 565C803.016 564.274 792.171 562.71 781.281 561.157C761.19 558.303 741.338 557.75 721.062 557.438C718.433 557.394 715.803 557.351 713.174 557.307C706.783 557.201 700.391 557.099 694 557C694.012 558.06 694.023 559.119 694.035 560.211C694.045 561.599 694.054 562.987 694.062 564.375C694.071 565.074 694.079 565.772 694.088 566.492C694.113 571.773 694.113 571.773 693 574C693.83 573.928 694.66 573.856 695.516 573.781C724.397 571.606 753.321 573.193 782 576.938C783.21 577.095 784.419 577.253 785.666 577.415C802.823 579.789 802.823 579.789 809 582C810.243 585.73 809.589 587.136 808.445 590.863C808.264 591.456 808.264 591.456 807.345 594.458C806.94 595.743 806.533 597.028 806.125 598.312C806.023 598.637 806.023 598.637 805.508 600.28C801.67 612.473 797.196 624.32 792 636C791.64 636.81 791.28 637.62 790.909 638.454C789.245 642.159 787.54 645.836 785.738 649.477C784.738 651.505 783.773 653.555 782.918 655.648C780.719 660.362 777.883 661.793 773.062 663.562C770.065 664.472 767.038 665.239 764 666C762.918 666.277 761.836 666.555 760.722 666.84C744.627 670.92 728.546 674.352 712 676C711.096 676.093 710.192 676.186 709.26 676.281C701.052 677.051 692.866 677.243 684.625 677.25C683.914 677.251 683.203 677.251 682.47 677.252C633.347 677.179 587.495 663.824 542.948 643.872C540.726 642.877 538.502 641.885 536.278 640.893C525.179 635.942 514.087 630.976 503 626C503 625.34 503 624.68 503 624C552.068 600.405 604.611 582.607 659 577C658.67 571.72 658.34 566.44 658 561C655.69 561 653.38 561 651 561C650.921 560.419 650.921 560.419 650.52 557.477C645.186 520.063 628.926 488.088 599.109 464.266C568.458 441.931 531.338 432.791 493.75 438.188C465.776 442.732 442.054 455.247 421 474C420.344 474.583 419.688 475.165 419.012 475.766C399.461 494.243 387.877 519.157 382 545C381.751 546.075 381.502 547.15 381.246 548.258C379.872 555.465 379.802 562.686 379.75 570C379.745 570.493 379.745 570.493 379.721 572.985C379.745 578.382 380.16 583.546 381.017 588.879C381.2 590.031 381.383 591.183 381.572 592.369C381.713 593.237 381.854 594.106 382 595C381.171 594.993 380.343 594.987 379.489 594.98C371.508 594.919 363.528 594.873 355.547 594.845C351.448 594.829 347.35 594.809 343.251 594.774C306.262 594.468 270.26 597.735 234.004 605.425C233.027 605.63 232.05 605.836 231.043 606.047C230.615 606.139 230.615 606.139 228.45 606.604C225.924 607.012 223.554 607.07 221 607C219.888 603.127 218.787 599.251 217.688 595.375C217.379 594.3 217.07 593.225 216.752 592.117C214.484 584.097 212.755 576.189 211 568C260.17 568 309.34 568 360 568C360.33 562.72 360.66 557.44 361 552C362.063 545.812 362.063 545.812 362.598 543.332C363.027 540.845 363.027 538.519 363 536C362.324 535.883 361.649 535.766 360.952 535.645C324.998 529.417 289.051 523.15 253.114 516.823C249.284 516.148 245.454 515.475 241.624 514.803C237.083 514.006 232.544 513.206 228.004 512.405C226.322 512.109 224.64 511.813 222.958 511.518C220.654 511.114 218.351 510.708 216.048 510.3C214.753 510.072 213.458 509.844 212.123 509.609C209 509 209 509 206 508C205.469 495.028 206.3 482.426 207.875 469.562C207.962 468.836 208.049 468.11 208.139 467.361C209.735 454.21 209.735 454.21 212 448C219.488 449.429 226.285 451.855 233.375 454.625C235.975 455.628 238.578 456.627 241.18 457.625C241.876 457.893 242.571 458.16 243.288 458.436C251.433 461.562 259.613 464.59 267.793 467.621C289.541 475.684 311.244 483.864 332.934 492.082C336.919 493.591 340.905 495.098 344.891 496.602C347.603 497.626 350.313 498.65 353.024 499.675C354.804 500.348 356.584 501.019 358.365 501.691C363.63 503.684 368.849 505.725 374 508C374.113 507.598 374.113 507.598 374.688 505.562C376.336 501.087 378.605 497.113 381 493C380.226 492.774 379.453 492.549 378.656 492.316C373.75 490.55 369.172 488.255 364.504 485.941C363.479 485.438 362.455 484.934 361.399 484.415C358.118 482.801 354.84 481.182 351.562 479.562C347.294 477.458 343.024 475.355 338.754 473.254C337.694 472.732 336.635 472.211 335.543 471.673C325.55 466.762 315.505 461.961 305.452 457.171C300.989 455.039 296.541 452.877 292.091 450.716C280.215 444.952 268.287 439.316 256.301 433.783C244.473 428.315 232.73 422.675 221 417C221.519 410.622 223.136 405.4 225.562 399.5C225.892 398.678 226.221 397.855 226.561 397.008C227.365 395.002 228.181 393 229 391C233.049 391.591 235.921 392.888 239.438 394.957C240.486 395.569 241.535 396.181 242.616 396.811C243.733 397.471 244.849 398.132 246 398.812C247.173 399.499 248.347 400.186 249.521 400.871C251.895 402.257 254.268 403.646 256.64 405.037C261.281 407.748 265.951 410.407 270.625 413.062C288.215 423.095 305.657 433.374 323.061 443.726C339.276 453.369 355.536 462.933 371.941 472.25C376.178 474.674 380.378 477.159 384.574 479.652C387 481 387 481 390 482C390.235 481.285 390.469 480.569 390.711 479.832C392.224 476.509 394.138 474.352 396.625 471.688C397.442 470.804 398.26 469.921 399.102 469.012C399.415 468.68 399.415 468.68 401 467C392.269 460.372 383.473 453.865 374.498 447.571C367.034 442.335 359.649 436.991 352.266 431.641C348.514 428.924 344.757 426.212 341 423.5C336.486 420.241 331.973 416.981 327.465 413.715C317.363 406.4 307.203 399.173 297 392C280.196 380.187 263.543 368.176 247 356C247.674 352.025 249.637 348.839 251.688 345.438C252.07 344.8 252.452 344.162 252.845 343.506C258.314 334.604 264.693 326.316 271 318C275.373 318.852 277.173 320.899 280.25 324.125C283.337 327.314 286.41 330.454 289.812 333.312C294.376 337.199 298.536 341.483 302.726 345.763C305.68 348.761 308.682 351.631 311.875 354.375C317.307 359.064 322.262 364.215 327.289 369.328C331.415 373.497 335.619 377.467 340.066 381.289C343.364 384.207 346.419 387.358 349.5 390.5C353.885 394.933 358.278 399.243 363.047 403.266C366.563 406.388 369.81 409.793 373.094 413.156C375.12 415.19 377.231 417.056 379.426 418.906C383.488 422.418 387.21 426.215 390.949 430.062C391.574 430.702 392.199 431.342 392.843 432.002C395.461 434.683 398.078 437.365 400.672 440.07C402.584 442.06 404.515 444.031 406.449 446C406.741 446.309 406.741 446.309 408.217 447.871C409.897 449.562 409.897 449.562 413 452C417.42 451.971 419.942 449.838 423.375 447.188C427.465 444.105 431.485 441.408 436 439C434.369 433.863 431.236 429.958 428.062 425.688C426.875 424.068 425.689 422.446 424.504 420.824C423.911 420.013 423.318 419.201 422.708 418.365C420.243 414.952 417.866 411.482 415.5 408C411.635 402.325 407.666 396.738 403.625 391.188C398.507 384.152 393.554 377.018 388.662 369.823C385.131 364.634 381.535 359.499 377.869 354.404C374.29 349.422 370.765 344.403 367.25 339.375C366.659 338.529 366.067 337.683 365.458 336.812C364.246 335.078 363.035 333.344 361.823 331.61C358.842 327.343 355.859 323.077 352.875 318.812C352.295 317.983 351.715 317.154 351.117 316.299C347.364 310.938 343.593 305.591 339.812 300.25C335.339 293.93 330.929 287.57 326.564 281.175C326.139 280.554 325.715 279.933 325.277 279.293C324.885 278.713 324.493 278.134 324.089 277.537C323 276 323 276 321.129 273.863C320 272 320 272 319.84 269.637C321.668 265.482 324.955 263.44 328.562 260.812C329.319 260.248 330.075 259.684 330.854 259.102C338.298 253.625 346.069 248.733 354 244C354.913 243.394 355.825 242.788 356.766 242.164C357.503 241.78 358.24 241.396 359 241C362.968 242.323 363.711 244.597 365.5 248.125C365.666 248.448 365.666 248.448 366.506 250.08C368.835 254.642 371.078 259.236 373.262 263.869C378.888 275.791 384.753 287.589 390.656 299.375C390.874 299.809 390.874 299.809 391.975 302.007C395.147 308.34 398.323 314.67 401.5 321C405.117 328.207 408.733 335.415 412.344 342.625C412.778 343.492 413.212 344.359 413.659 345.252C418.989 355.899 424.25 366.571 429.344 377.335C434.576 388.377 440.117 399.265 445.632 410.168C447.022 412.919 448.408 415.672 449.793 418.426C450.005 418.844 450.005 418.844 451.08 420.96C451.273 421.343 451.273 421.343 452.247 423.282C452.587 423.955 452.927 424.627 453.277 425.32C454 427 454 427 454 429C454.747 428.758 455.494 428.515 456.263 428.266C459.633 427.174 463.004 426.087 466.375 425C467.551 424.618 468.726 424.237 469.938 423.844C471.059 423.483 472.18 423.122 473.336 422.75C474.373 422.415 475.41 422.08 476.478 421.734C479 421 479 421 481 421C480.645 419.79 480.29 418.58 479.925 417.333C475.711 402.842 471.937 388.258 468.25 373.625C467.603 371.065 466.955 368.506 466.307 365.946C465.103 361.189 463.9 356.432 462.698 351.674C460.311 342.222 457.913 332.773 455.512 323.324C450.996 305.552 446.492 287.778 442 270C441.91 269.645 441.91 269.645 441.456 267.847C439.233 259.052 437.016 250.256 434.807 241.458C434.19 239.003 433.572 236.549 432.953 234.095C432.108 230.747 431.268 227.397 430.43 224.047C430.181 223.063 429.932 222.079 429.675 221.066C429.564 220.618 429.564 220.618 429 218.354C428.805 217.58 428.611 216.806 428.41 216.009C428 214 428 214 428 211C444.571 206.024 462.548 200.667 480 201Z" fill="#ffffff" fill-rule="nonzero" opacity="1" stroke="none" vectornator:layerName="Curve 4"/>
<path d="M605.423 468.94C618.615 480.497 628.915 493.433 637 509C637.606 510.136 638.211 511.271 638.836 512.441C646.296 527.281 651.292 544.334 651 561C651.66 561.33 652.32 561.66 653 562C652.248 562.115 651.496 562.23 650.722 562.348C597.215 570.627 540.513 584.407 493.425 612.082C492.295 612.736 491.164 613.389 490 614.063C489.03 614.652 488.061 615.241 487.062 615.848C481.02 618.121 474.36 615.71 468.355 613.961C466.877 613.544 465.398 613.127 463.919 612.711C463.149 612.493 462.378 612.275 461.585 612.05C434.09 604.308 406.478 598.555 378 596C378.495 595.67 378.495 595.67 381 594C380.855 593.412 380.711 592.824 380.562 592.219C373.647 558.797 383.137 524.301 401.36 496.16C405.99 489.295 411.424 483.106 417 477C417.688 476.24 418.376 475.479 419.086 474.695C467.737 423.581 553.393 424.167 605.423 468.94Z" fill="#ffffff" fill-rule="nonzero" opacity="1" stroke="none" vectornator:layerName="Curve 6"/>
<path d="M553 170C554.108 170.151 555.215 170.301 556.356 170.457C575.372 173.126 593.638 177.425 612 183C612.946 183.281 613.893 183.561 614.868 183.851C638.049 190.784 659.766 201.226 680.538 213.544C682.747 214.85 684.968 216.13 687.199 217.398C695.991 222.451 704.059 228.277 712.061 234.495C713.933 235.948 715.815 237.387 717.699 238.824C724.553 244.088 731.039 249.618 737.344 255.527C739.481 257.517 741.646 259.428 743.875 261.312C753.855 270.001 762.839 279.6 771 290C771.893 291.083 772.789 292.164 773.688 293.242C803.77 329.612 825.991 373.37 838 419C838.247 419.931 838.494 420.862 838.749 421.821C842.308 435.505 844.817 449.265 846.812 463.25C846.918 463.983 847.023 464.716 847.131 465.471C856.045 528.302 846.381 594.688 819 652C818.84 652.335 818.84 652.335 818.032 654.032C815.775 658.734 813.416 663.377 811 668C810.642 668.69 810.285 669.38 809.917 670.091C797.74 693.4 782.129 715.503 764.145 734.707C762.282 736.698 760.509 738.731 758.75 740.812C750.894 749.844 742.168 758.314 733 766C732.108 766.781 731.216 767.562 730.297 768.367C702.123 792.915 669.638 812.113 635 826C634.106 826.359 633.213 826.719 632.292 827.089C603.029 838.681 572.213 844.816 541 848C539.701 848.134 538.401 848.268 537.062 848.406C533.375 848.714 529.698 848.897 526 849C525.065 849.027 524.13 849.054 523.167 849.083C435.037 851.238 348.941 819.905 284.551 759.34C282 757 282 757 279.367 754.918C277.225 753.182 275.563 751.491 273.812 749.375C271.059 746.143 268.165 743.152 265.125 740.188C260.926 736.026 257.135 731.696 253.457 727.07C251.692 724.864 249.907 722.702 248.074 720.555C234.745 704.797 223.598 687.253 214 669C213.759 668.55 213.759 668.55 212.541 666.275C195.361 634.012 183.597 599.024 178.406 562.79C178.138 560.951 177.854 559.114 177.551 557.28C171.907 522.976 173.142 486.202 179 452C179.099 451.401 179.099 451.401 179.601 448.37C184.655 418.757 193.971 390.045 207 363C207.362 362.238 207.724 361.475 208.097 360.689C210.297 356.071 212.604 351.52 215 347C215.369 346.299 215.738 345.598 216.119 344.875C229.575 319.491 246.658 294.546 267.445 274.555C269.135 272.865 270.651 271.081 272.188 269.25C277.003 263.685 282.504 258.871 288 254C288.265 253.763 288.265 253.763 289.605 252.562C299.557 243.673 310.131 235.729 321 228C321.315 227.775 321.315 227.775 322.908 226.634C347.628 209.065 375.792 195.018 404.648 185.756C407.012 184.996 409.365 184.211 411.719 183.422C431.418 176.904 451.453 172.791 472 170C472.876 169.88 473.752 169.76 474.655 169.636C500.157 166.322 527.538 166.453 553 170ZM471 183C469.948 183.156 468.897 183.312 467.813 183.473C432.17 188.952 399.139 199.731 367 216C366.136 216.429 365.273 216.859 364.383 217.301C341.949 228.462 319.564 242.569 301.301 259.84C299.366 261.656 297.395 263.385 295.383 265.113C290.227 269.609 285.399 274.417 280.562 279.25C279.672 280.128 278.782 281.006 277.865 281.91C271.805 287.957 266.296 294.276 261 301C260.43 301.716 259.86 302.432 259.273 303.169C205.257 371.488 179.201 459.405 189.198 546.151C195.915 601.578 215.189 655.207 249 700C249.415 700.552 249.83 701.105 250.257 701.674C253.128 705.484 256.051 709.25 259 713C259.705 713.901 260.41 714.802 261.137 715.73C267.656 723.889 274.776 731.468 282 739C282.536 739.559 283.072 740.119 283.624 740.695C289.494 746.784 295.54 752.471 302.176 757.734C304.682 759.745 307.112 761.821 309.533 763.932C317.587 770.917 326.162 777.05 335 783C335.311 783.211 335.311 783.211 336.883 784.276C388.266 818.73 450.245 836.279 511.875 836.188C512.691 836.187 513.507 836.186 514.347 836.185C576.078 836.032 640.478 818.429 691 782C692.406 781.015 693.812 780.031 695.219 779.047C704.951 772.186 714.099 764.902 723 757C724.333 755.854 725.666 754.708 727 753.562C744.022 738.562 744.022 738.562 750.328 730.977C752.299 728.647 754.401 726.465 756.5 724.25C802.137 674.105 830.57 606.334 836 539C836.111 537.693 836.222 536.386 836.336 535.039C841.985 460.645 821.659 385.813 780 324C779.788 323.685 779.788 323.685 778.717 322.094C769.667 308.784 759.412 296.362 748.426 284.613C746.325 282.35 744.308 280.044 742.312 277.688C739.523 274.477 736.525 271.714 733.281 268.969C731.075 267.065 728.946 265.093 726.822 263.099C720.215 256.921 713.277 251.364 706 246C705.731 245.8 705.731 245.8 704.369 244.787C686.004 231.167 666.481 220.13 646 210C645.182 209.593 644.364 209.185 643.521 208.766C603.924 189.302 558.458 180.756 514.625 180.812C514.156 180.813 514.156 180.813 511.782 180.815C498.102 180.845 484.556 180.976 471 183Z" fill="#0f2e1e" fill-rule="nonzero" opacity="1" stroke="none" vectornator:layerName="Curve 9"/>
<path d="M658 561C658.33 566.28 658.66 571.56 659 577C643.899 579.844 643.899 579.844 636.837 581.106C607.914 586.297 579.472 593.442 552 604C551.045 604.366 550.091 604.731 549.107 605.108C536.459 609.988 524.006 615.204 511.727 620.952C510.87 621.352 510.012 621.752 509.129 622.164C508.377 622.519 507.625 622.875 506.85 623.241C505 624 505 624 503 624C503 624.66 503 625.32 503 626C504.256 626.397 505.511 626.794 506.805 627.203C512.389 629.067 517.741 631.377 523.125 633.75C524.146 634.196 525.166 634.642 526.218 635.102C531.604 637.466 536.946 639.896 542.25 642.438C575.049 657.855 609.924 669.65 646 674C646.782 674.103 647.565 674.206 648.371 674.312C688.559 679.533 730.05 675.416 768.674 663.385C772.24 662.306 774.45 661.912 778 663C776.431 665.779 774.842 668.546 773.25 671.312C772.807 672.098 772.363 672.884 771.906 673.693C771.468 674.451 771.03 675.208 770.578 675.988C770.18 676.685 769.782 677.381 769.372 678.099C766.862 681.576 764.049 683.246 759.93 684.246C759.529 684.344 759.529 684.344 757.502 684.839C756.635 685.036 755.768 685.234 754.875 685.438C754.42 685.543 754.42 685.543 752.117 686.079C729.701 691.11 707.42 693.235 684.5 693.25C683.549 693.251 682.597 693.251 681.617 693.252C620.761 693.184 566.749 673.342 511.93 648.844C460.265 625.773 404.722 612.179 348 611C347.509 610.989 347.509 610.989 345.024 610.934C310.12 610.269 275.75 613.845 241.631 621.069C240.443 621.32 239.255 621.57 238.031 621.828C236.985 622.054 235.939 622.28 234.861 622.513C232.173 622.971 229.72 623.094 227 623C226.158 621.087 225.327 619.17 224.5 617.25C224.036 616.183 223.572 615.115 223.094 614.016C222 611 222 611 222 607C241.445 602.835 260.848 598.786 280.625 596.562C280.966 596.524 280.966 596.524 282.693 596.328C287.125 595.835 291.56 595.405 296 595C297.036 594.898 298.071 594.797 299.138 594.692C311.518 593.624 323.959 593.756 336.375 593.75C336.987 593.75 336.987 593.75 340.087 593.748C385.285 593.787 428.901 600.773 472.198 613.955C473.155 614.238 474.112 614.521 475.098 614.812C475.928 615.066 476.758 615.32 477.614 615.582C481.835 616.321 485.107 615.16 488.766 613.102C489.122 612.906 489.122 612.906 490.923 611.916C491.691 611.49 492.459 611.064 493.25 610.625C539.795 585.546 604.288 561 658 561Z" fill="#0f2e1e" fill-rule="nonzero" opacity="1" stroke="none" vectornator:layerName="Curve 10"/>
<path d="M879 618C880.792 618.309 882.584 618.622 884.375 618.938C884.874 619.025 884.874 619.025 887.398 619.465C890 620 890 620 892 621C886.56 645.339 876.767 668.938 865.097 690.925C864.317 692.401 863.546 693.883 862.782 695.368C841.156 737.369 810.373 777.608 774 808C773.109 808.78 772.219 809.56 771.301 810.363C739.548 838.036 701.773 861.877 662.562 877.375C662.196 877.521 662.196 877.521 660.342 878.261C655.384 880.128 655.384 880.128 652 879C650.343 875.448 649.238 871.715 648 868C648.72 867.705 649.44 867.41 650.181 867.106C668.644 859.484 686.821 851.222 704 841C704.414 840.755 704.414 840.755 706.509 839.513C740.766 819.077 774.479 792.926 800 762C800.448 761.461 800.896 760.921 801.357 760.366C836.791 717.603 861.998 670.808 879 618Z" fill="#0f2e1e" fill-rule="nonzero" opacity="1" stroke="none" vectornator:layerName="Curve 11"/>
<path d="M146 619C147.273 621.73 147.273 621.73 148.375 625.402C148.801 626.769 149.227 628.136 149.653 629.502C149.872 630.225 150.091 630.949 150.317 631.694C155.234 647.839 161.509 662.863 169 678C169.753 679.555 170.504 681.111 171.254 682.668C183.929 708.753 200.284 732.878 219 755C219.771 755.955 220.542 756.91 221.336 757.895C228.247 766.347 235.867 774.082 243.562 781.812C244.093 782.348 244.624 782.884 245.17 783.436C252.112 790.431 259.27 796.867 267 803C268.836 804.559 270.67 806.121 272.5 807.688C301.937 832.162 336.27 852.578 372.289 865.711C373.184 866.136 374.078 866.562 375 867C376.236 870.708 375.568 871.675 374.062 875.188C373.698 876.037 373.334 876.887 372.959 877.763C372.642 878.501 372.326 879.239 372 880C363.634 878.045 356.126 875.047 348.375 871.375C347.233 870.839 346.09 870.304 344.914 869.752C310.178 853.343 278.826 832.351 250 807C249.085 806.198 248.17 805.396 247.227 804.57C240.717 798.732 234.485 792.611 228.278 786.454C226.856 785.043 225.43 783.637 224.004 782.231C217.896 776.131 212.388 769.737 207 763C206.018 761.84 205.029 760.685 204.031 759.539C198.243 752.875 193.015 746.044 188.123 738.68C186.989 736.983 185.835 735.301 184.676 733.621C174.275 718.435 164.801 702.543 156.911 685.907C155.99 683.979 155.042 682.065 154.09 680.152C133 637.257 133 637.257 133 621C134.412 620.466 135.83 619.948 137.25 619.438C138.039 619.147 138.828 618.857 139.641 618.559C142.375 617.911 143.453 617.81 146 619Z" fill="#0f2e1e" fill-rule="nonzero" opacity="1" stroke="none" vectornator:layerName="Curve 12"/>
<path d="M672 429C674.64 429 677.28 429 680 429C680 430.98 680 432.96 680 435C680.69 434.679 681.379 434.358 682.09 434.027C690.54 431.044 699.582 432.457 707.527 436.168C712.973 439.041 718.373 442.003 723.708 445.077C731.427 449.467 738.758 452.076 747.562 453.188C748.781 453.346 749.999 453.505 751.254 453.668C752.16 453.778 753.066 453.887 754 454C749.347 462.79 742.831 469.528 733.301 472.977C726.221 474.809 719.207 475.334 711.938 475.875C700.667 476.732 692.288 479.401 683 486C682.34 486 681.68 486 681 486C681 526.92 681 567.84 681 610C684.3 610.33 687.6 610.66 691 611C694.164 611.973 694.164 611.973 696.625 613.062C697.463 613.425 698.301 613.787 699.164 614.16C699.77 614.437 700.376 614.714 701 615C702.447 621.269 702.447 621.269 700.625 624.25C689.984 631.344 675.011 630.969 662.855 628.734C657.502 627.357 653.16 625.741 650 621C650.149 618.023 650.442 616.537 652.613 614.449C655.693 612.579 658.535 612.014 662.062 611.312C662.677 611.187 662.677 611.187 665.785 610.551C669 610 669 610 672 610C671.965 609.342 671.965 609.342 671.786 606.013C670.901 588.196 670.851 570.401 670.866 552.568C670.868 548.326 670.866 544.083 670.864 539.841C670.862 532.746 670.865 525.652 670.87 518.558C670.875 510.361 670.873 502.164 670.868 493.967C670.863 486.89 670.863 479.814 670.865 472.737C670.867 468.526 670.867 464.315 670.864 460.104C670.861 456.165 670.863 452.225 670.869 448.286C670.87 446.841 670.87 445.396 670.867 443.95C670.865 441.982 670.869 440.014 670.873 438.046C670.873 436.944 670.874 435.842 670.874 434.707C671 432 671 432 672 429Z" fill="#0f2e1e" fill-rule="nonzero" opacity="1" stroke="none" vectornator:layerName="Curve 13"/>
<path d="M774.703 177.633C779.224 177.25 782.614 177.136 786.543 179.586C789.159 181.95 791.568 184.447 794 187C796.326 189.198 798.696 191.347 801.062 193.5C806.512 198.525 808.334 200.506 809 208C809.089 208.782 809.177 209.564 809.269 210.37C809.583 215.149 809.425 218.178 806.254 221.906C805.047 223.129 803.816 224.326 802.562 225.5C801.275 226.787 799.989 228.075 798.703 229.363C798.071 229.98 797.438 230.597 796.787 231.233C794.359 233.634 792.086 236.139 789.812 238.688C789.475 239.061 789.475 239.061 787.769 240.949C787.185 241.626 786.602 242.303 786 243C785.43 243.62 784.86 244.24 784.273 244.879C782.538 247.77 782.703 249.908 782.812 253.25C782.839 254.328 782.867 255.405 782.894 256.516C782.929 257.336 782.964 258.155 783 259C777.239 260.298 771.912 261.257 766 261C766 259.35 766 257.7 766 256C764.742 256.021 763.484 256.041 762.187 256.063C752.941 255.045 745.958 246.24 739.851 239.824C738 238 738 238 735.324 236.379C732.278 233.261 732.281 231.19 732.152 226.943C732.164 226.054 732.176 225.166 732.187 224.25C732.194 223.344 732.201 222.437 732.209 221.503C732.42 216.41 732.733 212.945 736.562 209.25C738.025 208.144 739.503 207.059 741 206C742.079 204.847 743.121 203.657 744.125 202.438C747.706 198.275 751.44 194.263 755.187 190.25C755.794 189.6 756.401 188.949 757.026 188.279C758.678 186.514 760.337 184.755 762 183C762.749 182.206 763.498 181.412 764.269 180.594C767.343 177.764 770.725 178.173 774.703 177.633Z" fill="#0f2e1e" fill-rule="nonzero" opacity="1" stroke="none" vectornator:layerName="Curve 14"/>
<path d="M906 340C907.512 343.164 908.588 346.507 909.75 349.812C909.921 350.27 909.921 350.27 910.785 352.588C911.098 353.473 911.412 354.358 911.734 355.27C912.025 356.08 912.316 356.891 912.616 357.726C913.094 360.554 912.526 361.62 911 364C904.134 373.321 895.953 381.617 888 390C891.8 390 894.6 389.452 898.25 388.5C899.328 388.222 900.405 387.943 901.516 387.656C902.335 387.44 903.155 387.223 904 387C904 385.35 904 383.7 904 382C906.124 381.33 908.249 380.664 910.375 380C911.558 379.629 912.742 379.257 913.961 378.875C917 378 917 378 919 378C921.64 386.91 924.28 395.82 927 405C916 409 916 409 911 408C911 407.34 911 406.68 911 406C909.865 406.364 908.729 406.727 907.559 407.102C903.351 408.448 899.14 409.788 894.929 411.127C893.106 411.707 891.284 412.289 889.462 412.873C886.844 413.711 884.225 414.544 881.605 415.375C880.79 415.637 879.974 415.9 879.134 416.17C875.992 417.163 873.316 418 870 418C870.33 419.65 870.66 421.3 871 423C869.273 423.65 867.543 424.295 865.812 424.938C865.331 425.117 865.331 425.117 862.895 426.027C860.263 426.912 857.731 427.526 855 428C853.988 424.941 852.993 421.878 852 418.812C851.714 417.948 851.428 417.084 851.133 416.193C850.862 415.352 850.591 414.511 850.312 413.645C850.061 412.875 849.81 412.105 849.551 411.312C848.941 408.75 848.775 406.624 849 404C850.941 401.387 850.941 401.387 853.562 398.688C854.488 397.717 855.412 396.745 856.336 395.773C857.215 394.858 858.094 393.943 859 393C860.24 391.613 861.47 390.219 862.688 388.812C863.229 388.19 863.77 387.567 864.328 386.926C864.88 386.29 865.432 385.655 866 385C867.312 383.5 868.624 382 869.938 380.5C870.524 379.83 871.111 379.159 871.715 378.469C872.139 377.984 872.563 377.499 873 377C870.007 377 868.28 377.499 865.5 378.5C862.72 379.501 860.993 380 858 380C858 381.65 858 383.3 858 385C856.44 385.651 854.877 386.296 853.312 386.938C852.877 387.117 852.877 387.117 850.676 388.027C848.114 388.958 845.672 389.497 843 390C841.656 386.254 840.327 382.502 839 378.75C838.618 377.687 838.237 376.623 837.844 375.527C837.483 374.503 837.122 373.478 836.75 372.422C836.415 371.479 836.08 370.537 835.734 369.565C835 367 835 367 835 363C839.95 361.35 844.9 359.7 850 358C850.33 359.32 850.66 360.64 851 362C856.233 360.311 861.466 358.621 866.698 356.928C868.479 356.352 870.26 355.777 872.041 355.202C874.598 354.377 877.155 353.55 879.711 352.723C880.51 352.465 881.309 352.208 882.132 351.943C887.772 350.114 887.772 350.114 890 349C890 347.35 890 345.7 890 344C892.289 343.137 894.58 342.284 896.875 341.438C897.526 341.191 898.177 340.944 898.848 340.689C903.773 338.887 903.773 338.887 906 340Z" fill="#0f2e1e" fill-rule="nonzero" opacity="1" stroke="none" vectornator:layerName="Curve 15"/>
<path d="M111.348 429.184C111.691 429.212 111.691 429.212 113.424 429.353C120.794 429.992 128.137 430.891 135.459 431.937C137.723 432.255 139.989 432.544 142.256 432.832C143.717 433.038 145.177 433.245 146.637 433.454C147.933 433.63 149.23 433.807 150.566 433.99C154.625 435.184 156.284 436.816 159 440C159.595 440.635 160.189 441.269 160.801 441.922C161.051 442.224 161.051 442.224 162.313 443.75C162.825 444.343 163.336 444.936 163.864 445.547C165.622 449.342 165.211 452.883 165 457C164.973 457.893 164.946 458.786 164.918 459.705C164.11 479.174 164.11 479.174 157.872 485.581C152.431 490.343 149.411 491.292 142.196 490.872C140.179 490.672 138.162 490.472 136.149 490.241C133.955 489.995 131.76 489.791 129.561 489.595C125.693 489.24 121.838 488.808 117.982 488.338C116.402 488.154 114.82 487.986 113.236 487.836C98.3567 486.409 98.3567 486.409 92.5237 479.996C91.2957 478.37 90.1117 476.708 88.9997 475C88.3397 474.01 87.6797 473.02 86.9997 472C86.3487 460.952 86.1527 443.042 93.5977 434.266C99.4127 429.74 104.081 428.568 111.348 429.184Z" fill="#0f2e1e" fill-rule="nonzero" opacity="1" stroke="none" vectornator:layerName="Curve 16"/>
<path d="M548 79C549.719 79.125 549.719 79.125 551.981 79.481C552.826 79.612 553.671 79.743 554.541 79.877C555.001 79.951 555.001 79.951 557.328 80.328C557.799 80.403 557.799 80.403 560.18 80.782C562.178 81.102 564.175 81.425 566.172 81.75C569.221 82.245 572.272 82.723 575.324 83.199C577.263 83.512 579.202 83.826 581.141 84.141C582.052 84.281 582.964 84.422 583.903 84.567C592.97 86.081 597.864 89.813 603.355 97.254C606.67 103.365 604.624 110.825 602.749 117.176C601.68 119.779 600.243 121.336 598 123C597.34 123 596.68 123 596 123C596.681 123.763 597.361 124.526 598.062 125.312C601.166 129.924 599.828 134.794 599 140C598.812 141.396 598.625 142.792 598.438 144.188C598.293 145.116 598.149 146.044 598 147C599.32 147 600.64 147 602 147C601.858 148.917 601.712 150.834 601.562 152.75C601.522 153.284 601.522 153.284 601.316 155.984C601.059 158.437 600.682 160.639 600 163C591.529 162.53 583.308 161.746 575 160C575.538 151.612 576.424 143.337 577.598 135.02C578 132 578 132 578 130C573.71 129.34 569.42 128.68 565 128C564.856 129.774 564.711 131.548 564.562 133.375C564.125 138.75 564.125 138.75 563 141C564.65 141.33 566.3 141.66 568 142C567.34 147.28 566.68 152.56 566 158C558.202 157.051 550.404 156.098 542.625 155C541.586 154.856 540.547 154.711 539.477 154.562C537 154 537 154 535 152C535.347 149.383 535.789 146.938 536.375 144.375C536.527 143.669 536.679 142.962 536.836 142.234C537.214 140.487 537.606 138.743 538 137C539.65 137 541.3 137 543 137C543.091 136.358 543.091 136.358 543.551 133.109C545.308 120.73 547.128 108.362 549 96C547.68 95.67 546.36 95.34 545 95C545.307 92.52 545.621 90.041 545.938 87.562C546.025 86.855 546.112 86.148 546.201 85.42C546.887 80.113 546.887 80.113 548 79Z" fill="#0f2e1e" fill-rule="nonzero" opacity="1" stroke="none" vectornator:layerName="Curve 17"/>
<path d="M932 426C932.507 429.541 933.004 433.083 933.5 436.625C933.643 437.624 933.786 438.623 933.934 439.652C934.604 444.469 935.2 449.122 935 454C929.429 455.592 924.789 456.207 919 456C919 454.68 919 453.36 919 452C915.04 452.33 911.08 452.66 907 453C907.66 458.28 908.32 463.56 909 469C912.63 468.67 916.26 468.34 920 468C920 466.68 920 465.36 920 464C921.728 463.661 923.458 463.329 925.188 463C926.15 462.814 927.113 462.629 928.105 462.438C930.806 462.029 933.275 461.845 936 462C937.49 463.49 937.315 464.895 937.535 466.973C937.622 467.791 937.709 468.608 937.799 469.451C937.886 470.313 937.973 471.175 938.062 472.062C938.108 472.48 938.108 472.48 938.338 474.592C938.873 479.758 939.09 484.806 939 490C936.525 490.33 936.525 490.33 924 492C923.67 490.68 923.34 489.36 923 488C922.684 488.04 922.684 488.04 921.083 488.244C907.732 489.936 894.38 491.564 881 493C881 494.32 881 495.64 881 497C875.72 497.66 870.44 498.32 865 499C863.343 489.281 862.513 479.832 862 470C864.64 469.835 864.64 469.835 878 469C878 470.32 878 471.64 878 473C882.29 472.34 886.58 471.68 891 471C890.67 468.525 890.67 468.525 889 456C885.04 456.33 881.08 456.66 877 457C876.67 458.65 876.34 460.3 876 462C871.05 462.33 866.1 462.66 861 463C860.491 460.022 859.993 457.043 859.5 454.062C859.357 453.232 859.214 452.401 859.066 451.545C858.153 445.954 857.863 440.665 858 435C862.95 434.34 867.9 433.68 873 433C873.33 434.65 873.66 436.3 874 438C874.581 437.874 875.162 437.749 875.761 437.62C882.517 436.209 889.277 435.219 896.125 434.375C897.158 434.241 898.19 434.107 899.254 433.969C904.886 433.266 910.325 432.85 916 433C916 431.35 916 429.7 916 428C918.291 427.665 920.583 427.332 922.875 427C923.513 426.907 923.513 426.907 926.742 426.438C930 426 930 426 932 426Z" fill="#0f2e1e" fill-rule="nonzero" opacity="1" stroke="none" vectornator:layerName="Curve 18"/>
<path d="M394 95C396.594 97.594 397.145 99.949 398.25 103.438C398.626 104.591 399.003 105.745 399.391 106.934C400 110 400 110 398 113C403.465 119.762 409.025 126.42 414.749 132.963C417.237 135.833 419.506 138.705 421.621 141.863C424 145 424 145 427.812 145.938C428.864 145.958 429.916 145.979 431 146C431.675 147.747 432.339 149.498 433 151.25C433.371 152.225 433.743 153.199 434.125 154.203C435 157 435 157 435 161C426.09 163.97 417.18 166.94 408 170C403 157.5 403 157.5 403 152C400.442 150.721 399.782 151.19 397.121 152.074C395.557 152.604 393.996 153.142 392.438 153.688C391.644 153.945 390.851 154.202 390.033 154.467C389.278 154.729 388.524 154.991 387.746 155.262C387.399 155.38 387.399 155.38 385.642 155.979C384 157 384 157 383.266 159.109C383.178 159.733 383.09 160.357 383 161C383.99 161 384.98 161 386 161C386.7 162.912 387.385 164.83 388.062 166.75C388.445 167.817 388.828 168.885 389.223 169.984C390.016 173.063 390.282 174.16 389 177C386.715 178.188 386.715 178.188 383.723 179.141C382.652 179.489 381.582 179.837 380.479 180.195C379.351 180.543 378.224 180.891 377.062 181.25C375.939 181.614 374.816 181.977 373.658 182.352C365.379 185 365.379 185 363 185C362.163 182.71 361.33 180.418 360.5 178.125C360.262 177.474 360.023 176.823 359.777 176.152C358 171.227 358 171.227 358 169C358.825 168.835 358.825 168.835 363 168C362.977 166.93 362.954 165.86 362.93 164.758C362.731 150.763 363.773 136.934 365 123C363.35 122.67 361.7 122.34 360 122C359.493 120.419 358.995 118.835 358.5 117.25C358.361 116.809 358.361 116.809 357.656 114.578C357 112 357 112 357 108C369.21 103.71 381.42 99.42 394 95Z" fill="#0f2e1e" fill-rule="nonzero" opacity="1" stroke="none" vectornator:layerName="Curve 19"/>
<path d="M440 855C441.998 855.247 443.997 855.491 445.996 855.734C466.124 858.696 466.124 858.696 471.688 865.812C475.23 870.957 475.468 875.823 474.625 881.812C474.174 884.247 473.622 886.6 473 889C468.475 890.327 464.679 889.572 460.188 888.562C459.495 888.415 458.802 888.267 458.088 888.115C456.39 887.752 454.695 887.377 453 887C451.953 883.274 451.926 879.87 452 876C447.635 873.954 443.785 873.232 439 873C435.735 875.429 435.382 878.048 434.745 881.981C434.63 882.775 434.514 883.569 434.395 884.387C434.266 885.204 434.137 886.021 434.004 886.863C433.595 889.469 433.204 892.078 432.812 894.688C432.538 896.457 432.263 898.225 431.986 899.994C431.311 904.328 430.652 908.663 430 913C431.728 913.339 433.458 913.671 435.188 914C435.669 914.093 435.669 914.093 438.105 914.562C440.793 914.969 443.288 915.079 446 915C446.66 912.36 447.32 909.72 448 907C447.01 906.835 447.01 906.835 442 906C442.308 903.874 442.622 901.75 442.938 899.625C443.112 898.442 443.286 897.258 443.465 896.039C444 893 444 893 445 891C453.759 891.796 462.356 893.422 471 895C470.765 898.679 470.388 902.335 470 906C469.94 906.712 469.881 907.425 469.819 908.159C468.604 921.981 468.604 921.981 464.754 926.828C462.248 928.839 459.813 930.457 457 932C456.629 932.27 456.629 932.27 454.753 933.634C451.173 935.411 449.281 934.99 445.379 934.27C444.746 934.156 444.746 934.156 441.545 933.584C440.217 933.327 438.89 933.07 437.562 932.812C436.239 932.573 434.916 932.336 433.592 932.1C417.17 929.083 417.17 929.083 413.225 923.643C412.841 923.08 412.458 922.517 412.062 921.938C411.652 921.402 411.241 920.866 410.818 920.314C408.54 917.044 407.75 914.818 408.299 910.835C408.406 910.043 408.513 909.251 408.623 908.434C409.216 904.607 409.857 900.793 410.559 896.984C410.633 896.575 410.633 896.575 411.011 894.503C411.324 892.788 411.64 891.074 411.956 889.36C412.439 886.744 412.912 884.126 413.385 881.508C413.692 879.833 414 878.159 414.309 876.484C414.448 875.707 414.588 874.93 414.732 874.129C416.112 866.751 417.714 862.546 424.062 858.125C424.598 857.71 425.134 857.295 425.686 856.867C430.651 853.366 434.229 853.928 440 855Z" fill="#0f2e1e" fill-rule="nonzero" opacity="1" stroke="none" vectornator:layerName="Curve 20"/>
<path d="M833 227C840.017 233.856 846.516 241.226 851 250C849.311 251.542 847.598 253.058 845.875 254.562C844.924 255.409 843.972 256.256 842.992 257.129C839.279 259.451 838.159 258.744 834 258C831.027 259.52 831.027 259.52 827.938 261.812C827.385 262.215 826.833 262.617 826.264 263.031C821.511 266.521 816.841 270.14 812.226 273.812C809.806 275.72 807.954 277.015 805 278C804.562 280.5 804.562 280.5 805 284C807.085 286.915 809.475 289.462 812 292C818.081 290.562 822.122 287.091 826.875 283.25C828.414 282.025 829.953 280.801 831.492 279.578C832.237 278.983 832.982 278.388 833.749 277.775C837.118 275.119 840.552 272.552 844 270C843.835 269.34 843.835 269.34 843 266C844.737 264.464 846.49 262.947 848.25 261.438C848.737 261.014 848.737 261.014 851.203 258.871C854 257 854 257 856.051 256.848C859.056 258.624 860.904 261.233 862.938 264C863.376 264.583 863.815 265.166 864.267 265.766C867.611 270.285 870.52 274.948 873 280C871.12 281.565 869.225 283.1 867.312 284.625C866.782 285.071 866.252 285.517 865.705 285.977C864.113 287.227 864.113 287.227 861 289C860.209 288.642 859.417 288.283 858.602 287.914C857.743 287.612 856.885 287.311 856 287C853.029 288.481 850.599 290.628 848.062 292.75C846.55 293.963 845.035 295.174 843.52 296.383C842.764 296.993 842.008 297.603 841.229 298.231C837.981 300.808 834.633 303.229 831.25 305.625C830.691 306.026 830.131 306.426 829.555 306.839C828.048 307.909 826.525 308.955 825 310C824.205 310.587 823.409 311.173 822.59 311.777C817.384 314.235 811.353 313.158 805.919 311.751C800.866 309.773 798.063 305.14 795.202 300.769C793.932 298.9 792.56 297.164 791.137 295.41C783.226 285.485 783.226 285.485 783.688 280.25C784.086 278.822 784.525 277.405 785 276C785.104 275.202 785.209 274.404 785.316 273.582C786.452 266.984 789.716 264.021 795.023 260.183C796.271 259.303 797.523 258.427 798.778 257.556C803.353 254.352 807.832 251.021 812.312 247.688C813.262 247.005 814.212 246.323 815.191 245.621C816.073 244.966 816.955 244.311 817.863 243.637C818.66 243.056 819.457 242.476 820.279 241.878C822 240 822 240 822.108 237.413C822.072 236.616 822.037 235.82 822 235C824.406 232.762 824.406 232.762 827.5 230.688C828.521 229.99 829.542 229.293 830.594 228.574C831.388 228.055 832.182 227.535 833 227Z" fill="#0f2e1e" fill-rule="nonzero" opacity="1" stroke="none" vectornator:layerName="Curve 21"/>
<path d="M866 505C868.125 505.141 870.25 505.288 872.375 505.438C872.967 505.478 872.967 505.478 875.961 505.684C879 506 879 506 881 507C881.33 507.99 881.66 508.98 882 510C884.256 511.319 886.454 512.456 888.812 513.562C890.262 514.264 891.711 514.966 893.16 515.668C893.549 515.854 893.549 515.854 895.516 516.798C899.951 518.944 904.348 521.165 908.75 523.375C910.432 524.216 912.114 525.058 913.797 525.898C915.935 526.967 918.057 528.032 920.148 529.189C920.759 529.457 921.37 529.724 922 530C922.302 529.847 922.302 529.847 923.828 529.07C927.009 527.503 929.311 528.256 932.75 528.875C933.92 529.079 935.091 529.282 936.297 529.492C937.189 529.66 938.081 529.827 939 530C938.004 542.389 937 554.725 935 567C929.874 567.103 925.05 567.036 920 566C920 564.68 920 563.36 920 562C919.466 562.138 918.931 562.276 918.381 562.418C912.834 563.848 907.286 565.275 901.738 566.7C899.666 567.232 897.594 567.766 895.522 568.3C892.549 569.067 889.576 569.831 886.602 570.594C885.671 570.834 884.741 571.075 883.783 571.323C883.352 571.433 883.352 571.433 881.174 571.99C880.415 572.186 879.655 572.381 878.873 572.582C877 573 877 573 875 573C874.67 574.65 874.34 576.3 874 578C869.05 577.34 864.1 576.68 859 576C859.309 572.271 859.622 568.541 859.938 564.812C859.981 564.285 859.981 564.285 860.201 561.615C860.288 560.594 860.375 559.572 860.465 558.52C860.543 557.582 860.622 556.645 860.703 555.679C860.992 553.074 861.446 550.56 862 548C872.558 547.815 872.558 547.815 877 549C877 549.99 877 550.98 877 552C877.825 551.835 877.825 551.835 882 551C882.03 550.518 882.03 550.518 882.184 548.078C882.267 546.815 882.351 545.552 882.438 544.25C882.519 542.997 882.6 541.744 882.684 540.453C882.925 537.817 883.243 535.52 884 533C882.02 532.67 880.04 532.34 878 532C878 532.66 878 533.32 878 534C875.69 533.835 875.69 533.835 864 533C863.896 526.557 864.265 520.335 865 513.938C865.095 513.072 865.191 512.206 865.289 511.314C865.522 509.209 865.76 507.105 866 505Z" fill="#0f2e1e" fill-rule="nonzero" opacity="1" stroke="none" vectornator:layerName="Curve 22"/>
<path d="M725.512 136.055C726.517 136.67 727.522 137.285 728.557 137.918C729.59 138.564 730.623 139.21 731.688 139.875C732.733 140.513 733.777 141.151 734.854 141.809C742.779 146.698 746.177 149.06 748.414 158.227C749.399 162.885 750.043 166.123 747.653 170.426C746.17 172.679 744.634 174.856 743 177C738.382 176.452 735.019 174.411 731.188 171.938C730.59 171.561 729.993 171.184 729.377 170.795C727.914 169.87 726.456 168.936 725 168C725.319 167.401 725.637 166.801 725.965 166.184C727.419 163.116 727.617 161.357 727 158C723.956 154.64 721.067 153.097 716.563 152.688C715.717 152.791 714.872 152.894 714 153C712.375 155.75 712.375 155.75 711 159C712.096 162.194 713.545 163.679 716.371 165.438C717.028 165.858 717.685 166.278 718.362 166.711C719.047 167.137 719.732 167.562 720.438 168C726.611 171.855 730.553 174.624 732.688 181.875C732.813 182.287 732.813 182.287 733.45 184.367C735.185 192.665 732.13 197.201 727.765 204.002C724.619 208.54 722.241 211.159 716.688 212.563C713.824 212.942 713.824 212.942 711 213C710.03 213.082 709.059 213.163 708.059 213.246C704.1 212.928 701.777 211.533 698.375 209.5C697.774 209.144 697.173 208.787 696.554 208.42C677.249 196.84 677.249 196.84 675.313 189.313C673.679 182.282 673.756 177.778 677.563 171.563C678.364 170.367 679.172 169.177 680 168C684.069 168.653 687.257 170.791 690.688 172.938C691.281 173.298 691.875 173.658 692.487 174.03C696.873 176.745 696.873 176.745 698 179C697.34 179.99 696.68 180.98 696 182C696 184.938 696 184.938 697 188C700.048 190.694 702.182 191.856 706.188 192.563C709 192 709 192 710.938 189.75C712.106 186.728 712.176 185.929 711 183C709.374 181.648 709.374 181.648 707.289 180.45C706.539 179.998 705.789 179.546 705.016 179.08C703.433 178.158 701.847 177.242 700.258 176.33C694.953 173.119 692.836 170.955 691 165C690.643 164.094 690.286 163.188 689.918 162.254C688.223 156.008 688.964 152.1 692.101 146.596C692.542 145.884 692.983 145.172 693.438 144.438C693.65 144.092 693.65 144.092 694.726 142.344C697.921 137.616 700.585 135.77 706 134C706.367 133.874 706.367 133.874 708.223 133.235C708.83 133.075 709.437 132.915 710.063 132.75C710.368 132.665 710.368 132.665 711.91 132.235C717.153 131.647 721.128 133.356 725.512 136.055Z" fill="#0f2e1e" fill-rule="nonzero" opacity="1" stroke="none" vectornator:layerName="Curve 23"/>
<path d="M485 863C491.758 862.701 498.513 862.485 505.276 862.341C507.571 862.281 509.866 862.199 512.16 862.095C533.188 861.162 533.188 861.162 539.942 866.763C544.699 871.592 547.486 876.747 547.67 883.626C547.642 884.101 547.642 884.101 547.5 886.5C547.48 886.998 547.48 886.998 547.379 889.518C546.786 896.602 545.151 901.885 539.915 906.806C531.853 912.748 520.484 911.418 511 911C510.67 914.63 510.34 918.26 510 922C511.65 922 513.3 922 515 922C515 927.61 515 933.22 515 939C510.562 939.027 506.125 939.047 501.688 939.062C500.425 939.071 499.162 939.079 497.861 939.088C496.653 939.091 495.444 939.094 494.199 939.098C493.084 939.103 491.968 939.108 490.819 939.114C488 939 488 939 485 938C485 932.72 485 927.44 485 922C486.65 922 488.3 922 490 922C490 907.81 490 893.62 490 879C488.35 879 486.7 879 485 879C485 873.72 485 868.44 485 863Z" fill="#0f2e1e" fill-rule="nonzero" opacity="1" stroke="none" vectornator:layerName="Curve 24"/>
<path d="M223.051 199.656C232.94 199.182 232.94 199.182 237.313 203C238.544 204.331 239.773 205.664 241 207C241.373 207.266 241.373 207.266 243.262 208.613C247.214 211.613 249.094 214.246 249.781 219.16C250.343 226.808 249.991 232.887 245.125 239.125C242.946 241.445 242.946 241.445 241 243C240.34 243 239.68 243 239 243C238.732 243.577 238.464 244.155 238.188 244.75C236.983 247.032 235.592 248.974 234 251C234.598 251.247 235.196 251.495 235.813 251.75C238.288 253.164 239.335 254.728 241 257C241.66 257 242.32 257 243 257C243.165 256.67 243.165 256.67 244 255C248.105 255.518 249.957 257.646 252.75 260.562C253.549 261.389 254.349 262.215 255.172 263.066C255.775 263.704 256.379 264.342 257 265C252.6 271.333 247.534 276.649 242 282C240.977 283.018 239.956 284.039 238.938 285.062C238.298 285.702 237.659 286.341 237 287C235.266 285.538 233.541 284.068 231.828 282.582C230.402 281.348 228.955 280.138 227.5 278.937C227.005 278.298 226.51 277.658 226 277C226.267 276.277 226.534 275.553 226.809 274.808C227 272 227 272 225.905 270.395C224.188 268.558 222.406 266.835 220.563 265.125C219.916 264.503 219.27 263.881 218.603 263.24C214.752 259.558 210.821 255.974 206.754 252.531C203.68 249.847 200.844 246.923 198 244C196.68 244.66 195.36 245.32 194 246C192.705 244.9 191.414 243.795 190.125 242.687C189.406 242.072 188.687 241.457 187.946 240.824C186 239 186 239 184 236C184.237 232.112 186.39 230.328 189.125 227.75C191.948 225.024 194.662 222.316 197.188 219.312C200.691 215.256 204.383 211.397 208.125 207.562C208.724 206.934 209.322 206.306 209.938 205.659C214.329 201.21 216.883 200.351 223.051 199.656Z" fill="#0f2e1e" fill-rule="nonzero" opacity="1" stroke="none" vectornator:layerName="Curve 25"/>
<path d="M633 97C639.279 97.578 644.669 99.551 650.527 101.816C651.022 102.004 651.022 102.004 653.524 102.956C656.665 104.151 659.801 105.357 662.938 106.562C665.073 107.378 667.209 108.192 669.346 109.006C674.567 110.996 679.785 112.995 685 115C684.298 119.596 683.16 123.547 681.438 127.875C680.982 129.027 680.527 130.18 680.059 131.367C679.884 131.802 679.884 131.802 679 134C676.518 133.217 674.039 132.424 671.562 131.625C670.855 131.403 670.148 131.182 669.42 130.953C667.594 130.359 665.794 129.685 664 129C663.835 128.67 663.835 128.67 663 127C663.33 126.34 663.66 125.68 664 125C663.313 124.795 662.626 124.59 661.918 124.379C661.017 124.109 660.116 123.84 659.188 123.562C658.294 123.296 657.401 123.029 656.48 122.754C654.645 122.196 652.82 121.607 651 121C649.68 124.63 648.36 128.26 647 132C647.908 131.732 648.815 131.464 649.75 131.188C655.577 130.274 660.875 133.568 666 136C665.424 141.146 664.253 145.551 662.438 150.438C662.21 151.056 662.21 151.056 661.059 154.184C660.884 154.648 660.884 154.648 660 157C654.309 155.903 649.254 154.459 644 152C644 151.01 644 150.02 644 149C642.68 148.67 641.36 148.34 640 148C639.01 151.63 638.02 155.26 637 159C641.62 160.65 646.24 162.3 651 164C651 163.34 651 162.68 651 162C656.76 162.606 661.72 164.757 667 167C665.235 173.107 663.304 179.074 661 185C655.89 184.426 651.344 183.252 646.52 181.453C645.825 181.2 645.131 180.947 644.416 180.686C642.954 180.151 641.492 179.613 640.032 179.072C637.838 178.26 635.641 177.457 633.443 176.656C629.938 175.374 626.442 174.067 622.953 172.74C621.076 172.029 619.193 171.331 617.31 170.635C616.222 170.214 615.133 169.793 614.012 169.359C613.061 168.998 612.111 168.637 611.132 168.265C609 167 609 167 608.138 165.041C607.931 161.984 608.909 159.616 609.938 156.75C610.318 155.672 610.698 154.595 611.09 153.484C611.39 152.665 611.691 151.845 612 151C613.98 151.33 615.96 151.66 618 152C618.124 151.127 618.248 150.253 618.375 149.354C618.972 146.148 619.837 143.381 620.996 140.34C621.39 139.299 621.784 138.258 622.189 137.186C622.601 136.114 623.013 135.042 623.438 133.938C623.845 132.862 624.253 131.786 624.674 130.678C627.781 122.501 627.781 122.501 629.133 119.405C630 117 630 117 630 113C629.34 112.67 628.68 112.34 628 112C629.029 106.554 630.246 101.882 633 97Z" fill="#0f2e1e" fill-rule="nonzero" opacity="1" stroke="none" vectornator:layerName="Curve 26"/>
<path d="M158.625 512.547C162.881 517.937 162.305 524.351 162.035 530.899C162 533 162 533 162.375 536.781C163.025 544.128 161.921 549.497 157.098 555.282C150.596 561.555 141.025 560.83 132.539 560.95C129.402 561.012 126.308 561.306 123.187 561.625C122.201 561.684 121.215 561.744 120.199 561.805C118.471 561.91 116.743 562.028 115.022 562.216C106.393 563.147 99.536 563.098 92.5 557.5C87.821 553.3 86.165 549.776 85.687 543.375C85.718 541.293 85.811 539.225 85.937 537.146C86.002 534.925 85.834 532.825 85.598 530.617C84.972 523.819 84.99 518.289 89.127 512.596C93.313 507.732 97.056 505.453 103.496 504.836C106.69 504.711 109.81 504.792 113 505C113.701 511.7 114.11 518.263 114 525C113.362 525.061 112.724 525.121 112.066 525.184C111.653 525.226 111.653 525.226 109.563 525.438C109.151 525.478 109.151 525.478 107.066 525.684C105 526 105 526 104 527C103.901 528.977 103.87 530.958 103.875 532.938C103.872 534.019 103.87 535.101 103.867 536.215C104 539 104 539 105 541C114.382 541.242 123.59 540.909 132.937 540.063C133.915 539.976 134.892 539.889 135.899 539.799C142.869 539.131 142.869 539.131 144 538C144.073 535.647 144.084 533.292 144.063 530.938C144.053 529.647 144.044 528.357 144.035 527.027C144.024 526.028 144.012 525.029 144 524C140.7 524 137.4 524 134 524C134 525.65 134 527.3 134 529C133 530 133 530 130.059 530.098C128.864 530.086 127.669 530.075 126.437 530.063C125.839 530.058 125.839 530.058 122.809 530.035C121.882 530.024 120.955 530.012 120 530C119.027 527.081 118.807 524.946 118.684 521.895C118.642 520.912 118.6 519.929 118.557 518.916C118.517 517.892 118.478 516.868 118.437 515.813C118.394 514.777 118.351 513.741 118.307 512.674C118.201 510.116 118.098 507.558 118 505C124.078 504.173 130.126 503.653 136.25 503.313C136.692 503.283 136.692 503.283 138.93 503.131C139.783 503.084 140.636 503.037 141.516 502.988C141.899 502.965 141.899 502.965 143.837 502.849C149.875 503.271 154.701 508.312 158.625 512.547Z" fill="#0f2e1e" fill-rule="nonzero" opacity="1" stroke="none" vectornator:layerName="Curve 27"/>
<path d="M610 851C610.669 853.791 611.336 856.583 612 859.375C612.191 860.169 612.382 860.963 612.578 861.781C612.759 862.542 612.939 863.302 613.125 864.086C613.293 864.788 613.46 865.489 613.633 866.212C614 868 614 868 614 870C611.939 870.507 609.876 871.005 607.812 871.5C606.664 871.778 605.515 872.057 604.332 872.344C601.432 872.915 598.939 873.133 596 873C596 872.01 596 871.02 596 870C593.855 870.495 593.855 870.495 583 873C583 877.29 583 881.58 583 886C584.65 886 586.3 886 588 886C588 884.68 588 883.36 588 882C590.64 881.505 590.64 881.505 604 879C605.409 883.226 606.424 886.749 607.125 891.062C607.209 891.563 607.209 891.563 607.633 894.098C608 897 608 897 608 902C602.72 902.99 597.44 903.98 592 905C591.67 904.34 591.34 903.68 591 903C589.68 902.67 588.36 902.34 587 902C587.66 906.29 588.32 910.58 589 915C590.485 914.835 590.485 914.835 598 914C598.504 916.103 599.003 918.208 599.5 920.312C599.778 921.484 600.057 922.656 600.344 923.863C601 927 601 927 601 930C596.48 930.857 591.959 931.711 587.438 932.563C585.899 932.854 584.361 933.145 582.823 933.437C580.614 933.855 578.405 934.272 576.195 934.688C575.506 934.819 574.816 934.95 574.105 935.085C569.228 936 569.228 936 567 936C566.01 930.72 565.02 925.44 564 920C564.66 919.835 564.66 919.835 568 919C565.69 905.47 563.38 891.94 561 878C559.68 878 558.36 878 557 878C556.493 876.106 555.994 874.21 555.5 872.312C555.222 871.257 554.943 870.201 554.656 869.113C554.058 866.274 553.949 863.882 554 861C554.58 860.889 555.16 860.779 555.757 860.665C561.792 859.515 567.827 858.363 573.861 857.21C576.113 856.78 578.365 856.35 580.618 855.921C583.855 855.304 587.091 854.685 590.328 854.066C591.336 853.875 592.343 853.683 593.381 853.485C594.322 853.305 595.262 853.125 596.231 852.94C597.058 852.782 597.884 852.624 598.735 852.462C600.207 852.162 601.672 851.825 603.126 851.445C605.451 850.893 607.62 850.934 610 851Z" fill="#0f2e1e" fill-rule="nonzero" opacity="1" stroke="none" vectornator:layerName="Curve 28"/>
<path d="M526 78C527.242 84.675 527.07 91.219 527 98C521.72 98 516.44 98 511 98C510.835 97.505 510.835 97.505 510 95C505.38 95.33 500.76 95.66 496 96C496 100.29 496 104.58 496 109C497.32 109 498.64 109 500 109C500 107.68 500 106.36 500 105C505.61 105 511.22 105 517 105C517.787 108.147 518.12 110.194 518.098 113.328C518.094 114.127 518.091 114.927 518.088 115.75C518.084 116.162 518.084 116.162 518.062 118.25C518.058 119.09 518.053 119.931 518.049 120.797C518.037 122.865 518.019 124.932 518 127C515.36 127.165 515.36 127.165 502 128C501.67 127.01 501.34 126.02 501 125C499.68 125 498.36 125 497 125C497.33 128.96 497.66 132.92 498 137C500.64 137.33 503.28 137.66 506 138C506.194 140.479 506.38 142.958 506.562 145.438C506.619 146.145 506.675 146.852 506.732 147.58C506.862 149.384 506.935 151.192 507 153C505.006 154.994 501.174 154.417 498.438 154.562C497.685 154.605 496.932 154.647 496.156 154.691C488.436 155.091 480.728 155.094 473 155C471.859 151.578 471.902 148.913 471.938 145.312C471.947 144.133 471.956 142.954 471.965 141.738C471.976 140.835 471.988 139.931 472 139C472.825 138.835 472.825 138.835 477 138C476.967 137.733 476.967 137.733 476.801 136.379C475.887 128.227 475.668 120.068 475.438 111.875C475.394 110.427 475.351 108.979 475.307 107.531C475.201 104.021 475.099 100.511 475 97C473.35 97 471.7 97 470 97C469.973 94.354 469.953 91.708 469.938 89.062C469.929 88.308 469.921 87.553 469.912 86.775C469.903 84.85 469.948 82.925 470 81C471.543 79.457 473.043 79.794 475.193 79.703C476.085 79.663 476.977 79.623 477.896 79.582C478.382 79.562 478.382 79.562 480.844 79.465C481.842 79.422 482.84 79.379 483.869 79.335C485.991 79.244 488.112 79.156 490.234 79.07C493.459 78.939 496.682 78.801 499.906 78.662C501.969 78.575 504.031 78.489 506.094 78.402C507.05 78.362 508.007 78.321 508.993 78.279C514.667 78.051 520.321 77.963 526 78Z" fill="#0f2e1e" fill-rule="nonzero" opacity="1" stroke="none" vectornator:layerName="Curve 29"/>
<path d="M148 284C153.783 285.522 159.3 288.3 164 292C164.977 293.836 164.977 293.836 165 296C163.785 298.797 163.785 298.797 162.062 301.75C161.497 302.735 160.931 303.72 160.348 304.734C159.903 305.482 159.458 306.23 159 307C157.35 307 155.7 307 154 307C153.711 307.908 153.423 308.815 153.125 309.75C152 313 152 313 150.875 315.188C150 317 150 317 150 320C152.97 321.65 155.94 323.3 159 325C159.66 323.68 160.32 322.36 161 321C160.642 320.376 160.283 319.752 159.914 319.109C159.612 318.413 159.311 317.717 159 317C160.336 314.203 160.336 314.203 162.375 311.25C163.043 310.265 163.71 309.28 164.398 308.266C164.927 307.518 165.455 306.77 166 306C171.001 307.48 175.329 309.632 179.875 312.125C180.563 312.498 181.252 312.87 181.961 313.254C183.643 314.165 185.322 315.082 187 316C184.69 320.62 182.38 325.24 180 330C178.35 330 176.7 330 175 330C174.67 331.32 174.34 332.64 174 334C174.681 334.268 175.361 334.536 176.062 334.812C179.397 336.161 182.697 337.575 186 339C186.289 338.196 186.577 337.391 186.875 336.562C188 334 188 334 190 333C192.283 334.077 194.436 335.195 196.625 336.438C197.236 336.776 197.847 337.114 198.477 337.463C199.988 338.301 201.495 339.15 203 340C201.611 343.149 200.213 346.294 198.812 349.438C198.619 349.877 198.619 349.877 197.639 352.1C195.043 357.912 192.189 363.491 189 369C187.059 368.07 185.122 367.131 183.188 366.188C182.109 365.665 181.03 365.143 179.918 364.605C177.434 363.239 175.82 362.127 174 360C174.165 359.505 174.165 359.505 175 357C174.26 356.602 173.519 356.204 172.756 355.794C169.966 354.294 167.176 352.794 164.386 351.293C163.187 350.648 161.987 350.003 160.787 349.359C159.047 348.423 157.307 347.487 155.566 346.551C154.446 345.948 153.326 345.346 152.172 344.725C148.65 342.81 145.16 340.841 141.687 338.837C140 338 140 338 138 338C137.67 338.66 137.34 339.32 137 340C133.24 339.419 130.47 338.348 127.188 336.438C126.397 335.982 125.607 335.527 124.793 335.059C124.497 334.884 124.497 334.884 123 334C123.577 330.487 124.475 327.721 126.152 324.586C126.594 323.751 127.037 322.917 127.492 322.057C127.969 321.172 128.446 320.287 128.938 319.375C129.936 317.497 130.935 315.62 131.934 313.742C132.443 312.791 132.952 311.839 133.476 310.858C134.946 308.102 136.4 305.338 137.848 302.57C138.071 302.143 138.071 302.143 139.201 299.983C140.047 298.366 140.893 296.748 141.738 295.13C143.723 291.351 145.751 287.632 148 284Z" fill="#0f2e1e" fill-rule="nonzero" opacity="1" stroke="none" vectornator:layerName="Curve 30"/>
<path d="M295 139C299.092 140.364 299.615 142.348 301.688 146.062C302.31 147.167 302.933 148.272 303.574 149.41C304.045 150.265 304.515 151.119 305 152C304.01 152.99 303.02 153.98 302 155C303.484 159.042 305.422 162.593 307.625 166.289C307.973 166.874 308.32 167.459 308.678 168.062C309.782 169.918 310.891 171.772 312 173.625C312.745 174.877 313.49 176.13 314.234 177.383C319.625 186.438 319.625 186.438 322 190C326.308 188.434 330.062 186.317 334 184C333.67 182.35 333.34 180.7 333 179C335.145 177.68 335.145 177.68 346 171C349.359 174.359 351.432 176.99 353.812 181C354.125 181.516 354.125 181.516 355.707 184.125C357 187 357 187 356.932 188.952C355.515 192.066 353.321 192.961 350.383 194.645C349.811 194.977 349.239 195.31 348.65 195.653C346.815 196.718 344.971 197.766 343.125 198.812C340.729 200.19 338.338 201.574 335.945 202.957C335.652 203.126 335.652 203.126 334.166 203.98C329.459 206.699 324.865 209.568 320.3 212.519C311.789 218 311.789 218 308 218C306.845 215.69 306.845 215.69 301 204C301.99 203.01 302.98 202.02 304 201C302.73 198.874 301.459 196.749 300.188 194.625C299.793 193.965 299.399 193.306 298.992 192.626C296.673 188.756 294.329 184.903 291.953 181.066C291.451 180.254 290.95 179.442 290.433 178.605C289.444 177.007 288.452 175.411 287.456 173.817C287.005 173.087 286.554 172.357 286.09 171.605C285.888 171.281 285.888 171.281 284.867 169.641C284 168 284 168 284 166C282.35 166.66 280.7 167.32 279 168C277.825 166.067 276.661 164.129 275.5 162.188C274.85 161.109 274.201 160.03 273.531 158.918C272 156 272 156 272 153C273.788 151.59 273.788 151.59 276.27 150.152C276.714 149.891 276.714 149.891 278.963 148.568C279.903 148.03 280.844 147.492 281.812 146.938C283.653 145.864 285.492 144.789 287.332 143.715C288.154 143.242 288.976 142.769 289.823 142.281C291.584 141.245 293.3 140.133 295 139Z" fill="#0f2e1e" fill-rule="nonzero" opacity="1" stroke="none" vectornator:layerName="Curve 31"/>
<path d="M164 370C169.146 370.576 173.551 371.747 178.438 373.562C179.674 374.018 180.91 374.473 182.184 374.941C183.113 375.291 184.042 375.64 185 376C183.79 382.737 182.149 389.162 179.996 395.656C179.713 396.525 179.429 397.394 179.137 398.289C178.544 400.105 177.948 401.92 177.35 403.734C176.431 406.519 175.521 409.306 174.611 412.094C174.032 413.865 173.452 415.636 172.871 417.406C172.735 417.823 172.735 417.823 172.044 419.931C170.118 425.764 170.118 425.764 169 428C163.545 427.432 159.089 426.054 154 424C154 422.35 154 420.7 154 419C153.691 418.922 153.691 418.922 152.128 418.526C143.875 416.364 135.857 413.629 127.812 410.812C126.466 410.344 125.119 409.876 123.771 409.408C120.513 408.276 117.256 407.139 114 406C113.67 407.32 113.34 408.64 113 410C102.442 408.073 102.442 408.073 98 406C99.564 396.304 102.795 387.251 106 378C116.558 379.927 116.558 379.927 121 382C121 383.98 121 385.96 121 388C121.577 388.112 121.577 388.112 124.496 388.68C131.832 390.31 138.93 392.785 146.062 395.125C147.515 395.598 148.967 396.071 150.42 396.543C153.948 397.691 157.474 398.844 161 400C161.495 397.855 161.495 397.855 164 387C162.68 386.01 161.36 385.02 160 384C160.478 382.229 160.958 380.458 161.438 378.688C161.704 377.701 161.971 376.715 162.246 375.699C162.781 373.785 163.371 371.886 164 370Z" fill="#0f2e1e" fill-rule="nonzero" opacity="1" stroke="none" vectornator:layerName="Curve 32"/>
<path d="M694 557C701.536 556.95 709.071 556.914 716.607 556.89C719.16 556.88 721.712 556.867 724.264 556.849C748.371 556.688 771.7 558.365 795.5 562.125C797.318 562.406 799.135 562.686 800.953 562.965C805.303 563.635 809.652 564.314 814 565C813.716 566.897 813.422 568.793 813.125 570.688C812.963 571.743 812.8 572.799 812.633 573.887C812.041 576.798 811.197 579.29 810 582C802.828 581.271 795.743 580.201 788.625 579.062C763.659 575.162 739.066 573.827 713.812 573.938C711.779 573.943 709.746 573.947 707.713 573.951C702.809 573.962 697.904 573.979 693 574C693.33 568.39 693.66 562.78 694 557Z" fill="#0f2e1e" fill-rule="nonzero" opacity="1" stroke="none" vectornator:layerName="Curve 33"/>
<path d="M884 298C885.442 300.085 885.442 300.085 886.918 302.805C887.45 303.781 887.981 304.756 888.529 305.762C889.077 306.789 889.624 307.816 890.188 308.875C890.467 309.385 890.467 309.385 891.881 311.965C896 319.6 896 319.6 896 323C891.38 325.31 886.76 327.62 882 330C881.34 329.01 880.68 328.02 880 327C875.991 328.253 872.345 329.725 868.629 331.68C867.642 332.197 866.655 332.714 865.639 333.246C864.624 333.784 863.608 334.321 862.562 334.875C861.551 335.405 860.54 335.935 859.498 336.48C857.539 337.511 855.583 338.549 853.633 339.597C852.02 340.456 850.396 341.296 848.753 342.099C846.84 343.07 846.84 343.07 844 345C843.398 347.543 843.398 347.543 843 350C840.602 351.801 840.602 351.801 837.625 353.312C836.648 353.824 835.671 354.336 834.664 354.863C832 356 832 356 829 356C826.932 352.264 824.901 348.509 822.875 344.75C822.286 343.687 821.697 342.623 821.09 341.527C820.816 341.015 820.816 341.015 819.43 338.422C818.916 337.479 818.403 336.537 817.875 335.565C817 333 817 333 817.706 330.754C819.455 328.384 821.29 327.51 823.938 326.25C824.813 325.822 825.688 325.394 826.59 324.953C829 324 829 324 832 324C832.33 324.66 832.66 325.32 833 326C837.501 325.4 841.06 323.568 844.98 321.402C845.635 321.049 846.289 320.695 846.962 320.33C849.041 319.206 851.115 318.072 853.188 316.938C855.272 315.8 857.357 314.664 859.445 313.534C860.741 312.831 862.036 312.125 863.328 311.414C867.776 309 867.776 309 870 309C869.835 308.175 869.835 308.175 869 304C870.93 302.8 872.869 301.615 874.812 300.438C875.891 299.776 876.97 299.115 878.082 298.434C881 297 881 297 884 298Z" fill="#0f2e1e" fill-rule="nonzero" opacity="1" stroke="none" vectornator:layerName="Curve 34"/>
<path d="M108 449C116.409 449.41 124.722 450.253 133.062 451.375C133.966 451.489 134.87 451.603 135.802 451.72C140.516 452.381 144.083 453.084 148 456C147.94 457.938 147.851 459.876 147.75 461.812C147.704 462.891 147.657 463.97 147.609 465.082C147 468 147 468 145.411 469.714C141.973 471.548 139.656 470.999 135.82 470.488C135.13 470.4 134.44 470.312 133.728 470.221C132.27 470.031 130.812 469.833 129.356 469.627C127.142 469.315 124.925 469.027 122.707 468.744C116.607 467.937 110.809 467.124 105 465C104.918 463.272 104.86 461.542 104.812 459.812C104.778 458.85 104.743 457.887 104.707 456.895C105.044 453.562 106.104 451.722 108 449Z" fill="#ffffff" fill-rule="nonzero" opacity="1" stroke="none" vectornator:layerName="Curve 35"/>
<path d="M659 441C659 450.57 659 460.14 659 470C656.463 471.506 653.926 473.011 651.312 474.562C650.918 474.802 650.918 474.802 648.919 476.014C643.755 478.996 643.755 478.996 640.207 479.016C637.544 477.79 636.22 476.458 634.375 474.188C633.805 473.5 633.235 472.813 632.648 472.105C632.104 471.411 631.56 470.716 631 470C630.435 469.316 629.871 468.631 629.289 467.926C628 466 628 466 628 463C629.37 461.609 629.37 461.609 631.297 460.18C632.003 459.648 632.71 459.117 633.437 458.569C634.2 458.01 634.964 457.451 635.75 456.875C636.519 456.301 637.288 455.727 638.08 455.136C639.642 453.972 641.205 452.811 642.772 451.654C644.773 450.169 646.756 448.664 648.73 447.145C649.278 446.725 649.826 446.306 650.39 445.874C650.9 445.482 651.411 445.091 651.938 444.688C656.75 441 656.75 441 659 441Z" fill="#0f2e1e" fill-rule="nonzero" opacity="1" stroke="none" vectornator:layerName="Curve 36"/>
<path d="M779.188 197C783.384 198.492 786.49 201.327 789 205C789.716 208.588 789.126 209.808 787.101 212.895C786.284 213.857 785.467 214.82 784.625 215.812C783.812 216.788 783 217.764 782.164 218.77C781.449 219.506 780.736 220.242 780 221C779.341 221 778.679 221 778 221C778 220.01 778 219.02 778 218C777.505 218.083 777.505 218.083 775 218.5C770.972 219.085 767.066 219.071 763 219C763.164 219.784 763.331 220.567 763.5 221.375C764.13 225.94 764.082 230.401 764 235C763.505 235.165 763.505 235.165 761 236C758.992 234.742 758.992 234.742 756.875 232.875C756.172 232.274 755.467 231.674 754.742 231.055C752.674 228.616 752.101 227.191 752 224C753.117 222.113 753.117 222.113 754.875 220.312C755.523 219.628 756.169 218.944 756.836 218.238C757.551 217.5 758.264 216.761 759 216C760.505 214.338 762.005 212.672 763.5 211C763.878 210.583 763.878 210.583 765.785 208.473C768.432 205.518 771.019 202.516 773.59 199.496C775.452 197.52 776.458 197 779.188 197Z" fill="#ffffff" fill-rule="nonzero" opacity="1" stroke="none" vectornator:layerName="Curve 37"/>
<path d="M254 166C254.745 166.763 255.49 167.526 256.258 168.312C259 171 259 171 261.055 172.5C263.561 174.565 264.677 175.984 266 179C266.611 185.984 265.782 193.056 265 200C261.574 198.422 260.159 197.162 258.25 193.875C257.822 193.151 257.394 192.426 256.953 191.68C256.639 191.125 256.324 190.571 256 190C254.02 190.99 252.04 191.98 250 193C246.7 188.71 243.4 184.42 240 180C242.115 175.769 244.532 173.618 248.125 170.75C248.688 170.291 249.252 169.832 249.832 169.359C251.216 168.233 252.607 167.116 254 166Z" fill="#0f2e1e" fill-rule="nonzero" opacity="1" stroke="none" vectornator:layerName="Curve 38"/>
<path d="M516.375 878.812C517.352 878.798 518.329 878.784 519.336 878.769C522 879 522 879 525 881C525.398 883.532 525.398 883.532 525.375 886.5C525.383 887.48 525.39 888.46 525.398 889.468C525.267 890.304 525.135 891.139 525 892C521.608 894.261 520.348 894.245 516.375 894.188C515.393 894.182 514.41 894.174 513.398 894.168C511 894 511 894 510 893C509.901 890.836 509.87 888.668 509.875 886.5C509.872 885.314 509.87 884.129 509.867 882.907C510.091 878.01 511.955 878.841 516.375 878.812Z" fill="#ffffff" fill-rule="nonzero" opacity="1" stroke="none" vectornator:layerName="Curve 39"/>
<path d="M224.25 219.375C227.126 221.074 228.575 221.982 230 225C230.153 228.443 229.59 230.3 227.363 232.941C225.622 234.689 223.849 236.368 222 238C220.894 237.064 219.791 236.126 218.688 235.187C218.073 234.665 217.458 234.143 216.824 233.605C215.146 232.128 213.561 230.6 212 229C214.339 223.75 218.12 218.668 224.25 219.375Z" fill="#ffffff" fill-rule="nonzero" opacity="1" stroke="none" vectornator:layerName="Curve 40"/>
<path d="M570 100C574.16 99.788 577.09 99.659 581 101.125C583 103 583 103 583.5 105.938C582.949 109.313 582.42 110.621 580 113C577.301 113.172 577.301 113.172 574.312 112.75C573.319 112.621 572.325 112.492 571.301 112.359C570.542 112.241 569.782 112.122 569 112C567.861 107.388 568.494 104.517 570 100Z" fill="#ffffff" fill-rule="nonzero" opacity="1" stroke="none" vectornator:layerName="Curve 41"/>
<path d="M384 127.605C389.802 133.25 389.802 133.25 392 136.605C392 137.265 392 137.925 392 138.605C389.03 139.265 386.06 139.925 383 140.605C383.33 136.315 383.66 132.025 384 127.605Z" fill="#ffffff" fill-rule="nonzero" opacity="1" stroke="none" vectornator:layerName="Curve 42"/>
<path d="M909.158 543.864C901.804 547.247 901.804 547.247 897.883 548.091C897.267 547.853 896.651 547.616 896.017 547.371C896.47 544.363 896.922 541.354 897.389 538.254C901.273 540.106 905.157 541.957 909.158 543.864Z" fill="#ffffff" fill-rule="nonzero" opacity="1" stroke="none" vectornator:layerName="Curve 43"/>
<path d="M45.6872 507.219C45.6872 249.631 254.994 40.8151 513.187 40.8151C771.38 40.8151 980.687 249.631 980.687 507.219C980.687 764.807 771.38 973.624 513.187 973.624C254.994 973.624 45.6872 764.807 45.6872 507.219Z" fill="none" opacity="1" stroke="#ffffff" stroke-linecap="butt" stroke-linejoin="round" stroke-width="5" vectornator:layerName="Oval 2"/>
</g></g>
</svg>
